<svg width="59" height="56" viewBox="0 0 59 56" fill="none" xmlns="http://www.w3.org/2000/svg">
<path d="M21.9375 56C21.6958 55.9395 21.4448 55.9208 21.1964 55.9449C18.0159 55.8681 14.8436 55.7007 11.7181 55.0943C9.88552 54.7379 8.10592 54.2102 6.46275 53.3064C4.39809 52.1723 3.02369 50.4869 2.12371 48.384C1.19319 46.2181 0.769667 43.9302 0.494787 41.6186C0.240268 39.5374 0.150674 37.4443 0.0753367 35.3493C-0.0183264 32.7208 0.0366507 30.0922 0 27.4616C0 27.0954 0.107916 26.9891 0.492749 27.0009C3.22323 27.0796 5.95371 27.1623 8.67808 27.3297C11.3251 27.4911 13.9721 27.7235 16.5621 28.2984C19.7649 29.0033 22.5993 30.354 24.8594 32.703C26.6227 34.5362 27.7589 36.704 28.4267 39.1121C29.0539 41.3665 29.343 43.6683 29.5385 45.9877C29.7543 48.5199 29.8419 51.0579 29.9457 53.5939C29.9762 54.3933 30.017 55.1927 29.9925 55.9921L21.9375 56Z" fill="#5D371C"/>
<path d="M30 56C30.0098 54.1215 30.1024 52.2451 30.1851 50.3686C30.2383 49.1872 30.2895 48.0057 30.382 46.8243C30.5908 44.0677 30.8625 41.311 31.6621 38.641C32.4222 36.1088 33.6825 33.8779 35.6144 32.0566C37.4537 30.3199 39.6396 29.1995 42.0696 28.536C44.0624 28.0244 46.0957 27.6865 48.1468 27.5258C51.0199 27.262 53.899 27.1635 56.7781 27.0651C57.3866 27.0454 57.9971 27.0316 58.6056 27.0021C58.895 26.9863 59.0093 27.0552 58.9994 27.3723C58.9797 29.8493 59.0152 32.3283 58.9581 34.8034C58.8911 37.6447 58.7493 40.486 58.3023 43.2998C57.9537 45.4933 57.424 47.6316 56.3665 49.6007C55.5313 51.1695 54.258 52.4617 52.7017 53.3202C50.5828 54.5154 48.261 55.0371 45.89 55.3876C44.0418 55.6436 42.1817 55.8052 40.317 55.872C39.4702 55.9114 38.6175 55.872 37.7727 55.9882L30 56Z" fill="#5D371C"/>
<path d="M29.988 0.00550335C30.0369 1.22546 29.9228 2.44175 29.8882 3.65987C29.8658 4.43955 29.8067 5.21922 29.7701 5.99889C29.6357 8.81305 29.4157 11.6199 28.7925 14.3882C28.1123 17.4133 26.7417 20.1247 24.2143 22.2766C22.1288 24.0543 19.6238 25.1256 16.852 25.7255C14.6485 26.2043 12.4062 26.4281 10.1517 26.5914C7.02145 26.8189 3.88307 26.8776 0.746731 26.9932C0.00541423 27.0189 0.00337467 27.006 0.00541125 26.3236C0.00541125 24.3239 -0.0190259 22.3225 0.0359619 20.3228C0.119462 17.3656 0.239619 14.4102 0.791533 11.4841C1.08504 9.76219 1.63299 8.08339 2.4208 6.49238C3.40838 4.54555 5.14447 2.98627 7.3086 2.10236C9.43887 1.1851 11.7056 0.766829 14.0192 0.487981C16.2739 0.230323 18.5427 0.0851753 20.8152 0.0531999C20.9591 0.0649939 21.104 0.0467912 21.2388 0L29.988 0.00550335Z" fill="#5D371C"/>
<path d="M38.3814 0C38.6149 0.0576736 38.8576 0.0763091 39.0982 0.0550404C42.3377 0.154112 45.5674 0.335746 48.732 1.05493C50.2075 1.37063 51.624 1.89008 52.9345 2.59605C54.9432 3.70785 56.239 5.34803 57.0701 7.35698C57.972 9.53106 58.3541 11.8042 58.6061 14.1049C59.0571 18.2567 58.9764 22.4232 59 26.5805C59 26.92 58.87 27.0117 58.5333 26.9988C55.8314 26.8961 53.1295 26.8301 50.4315 26.6668C48.0467 26.5554 45.6736 26.285 43.3302 25.8577C40.392 25.2798 37.7216 24.179 35.5318 22.2159C34.1504 20.9854 33.0563 19.5027 32.3179 17.8604C31.3903 15.8001 30.9394 13.6407 30.6656 11.4391C30.4234 9.47602 30.2895 7.50559 30.1969 5.53333C30.1103 3.6895 30.0217 1.84567 30 0.00183365L38.3814 0Z" fill="#5D371C"/>
</svg>
