<svg width="72" height="60" viewBox="0 0 72 60" fill="none" xmlns="http://www.w3.org/2000/svg">
<g clip-path="url(#clip0_958_331)">
<path d="M4.12163 3.8147e-06L12.1019 5.85939C14.0554 7.30045 16.009 8.77258 17.9977 10.1729C18.572 10.5788 18.7557 11.0157 18.7322 11.7032C18.5369 17.2325 18.3903 22.7734 18.1637 28.2948C18.1247 29.2659 18.404 29.3941 19.2831 29.3164C25.3391 28.7823 31.4068 28.3006 37.4687 27.7996C38.0216 27.7549 38.5686 27.6792 39.1214 27.6384C40.6178 27.5296 40.6335 27.5335 40.6667 26.0847C40.7682 21.7499 40.862 17.4131 40.9499 13.0724C40.9499 12.7267 40.9812 12.381 41.0046 11.8372L68.6552 35.8613C68.4598 36.1701 68.2098 36.0555 68.0027 36.0555C61.6536 35.9481 55.3059 35.8374 48.9595 35.7234C47.8596 35.704 47.8577 35.706 48.3246 36.7586C51.6118 44.1749 54.9002 51.5912 58.19 59.0076C58.3189 59.297 58.4283 59.5902 58.5963 60.0039C56.0899 59.8912 53.6988 59.7825 51.3057 59.6796C50.7958 59.6562 50.7196 59.2096 50.534 58.9027C47.7737 54.3678 45.0055 49.8369 42.292 45.2748C41.8779 44.5776 41.4422 44.3174 40.6295 44.2785C35.299 44.0196 29.9697 43.7205 24.6417 43.3812C23.9013 43.3346 23.5809 43.5191 23.3192 44.2338C21.4848 49.2387 19.582 54.2183 17.7359 59.2193C17.5034 59.8524 17.2026 60.0427 16.5345 59.9961C15.0088 59.8932 13.4772 59.8407 11.9495 59.8563C11.1173 59.8563 10.8985 59.7009 11.1564 58.8367C13.1373 52.216 15.0361 45.57 17.0502 38.961C17.396 37.8268 17.2299 37.0888 16.4935 36.1896C11.1056 29.6193 5.78214 22.9967 0.413791 16.4129C-0.0355255 15.8633 -0.0824112 15.3991 0.0973153 14.7446C1.37298 10.1049 2.60763 5.45349 3.85985 0.807928C3.92432 0.563221 4.01418 0.324339 4.12163 3.8147e-06ZM47.2286 23.4997V29.7436C47.2286 30.2777 47.6389 30.1321 47.93 30.1321C49.9402 30.1418 51.9523 30.1321 53.9645 30.1321H55.8145L47.2286 23.4997Z" fill="#F39416"/>
<path d="M71.9531 59.798H65.9733C65.6392 59.798 65.354 59.7844 65.1919 59.394C63.0195 54.3562 60.8335 49.3222 58.5986 44.1678C60.8745 44.1678 63.0332 44.1678 65.1919 44.1678C65.5279 44.1678 65.6353 44.3989 65.7349 44.6339C67.8318 49.6381 69.9247 54.6443 72.0137 59.6524C72.0078 59.6698 71.9804 59.7087 71.9531 59.798Z" fill="#F39416"/>
<path d="M31.5146 48.9221C33.7339 48.9221 35.7793 48.9221 37.8266 48.9221C37.9711 48.9108 38.1151 48.9486 38.2351 49.0295C38.3551 49.1103 38.4439 49.2293 38.4869 49.3669C39.9598 52.7423 41.4406 56.1145 42.9292 59.4834C42.9531 59.6009 42.961 59.7211 42.9527 59.8407C40.8917 59.8407 38.8502 59.8407 36.8068 59.8407C36.679 59.8535 36.5507 59.8217 36.4438 59.7509C36.337 59.68 36.2581 59.5745 36.2208 59.4523C34.6872 56.0109 33.1537 52.5675 31.5146 48.9221Z" fill="#F39416"/>
<path d="M57.9911 22.0684C56.7213 20.6681 55.6254 19.4543 54.5197 18.2482C53.0057 16.5955 52.9998 16.5974 54.4161 14.865C55.0862 14.0455 55.766 13.2336 56.565 12.2587C57.0515 15.57 57.5008 18.6813 57.9911 22.0684Z" fill="#F39416"/>
</g>
<defs>
<clipPath id="clip0_958_331">
<rect width="72" height="60" fill="white"/>
</clipPath>
</defs>
</svg>
