<svg width="340" height="72" viewBox="0 0 340 72" fill="none" xmlns="http://www.w3.org/2000/svg">
<g clip-path="url(#clip0_1027_231)">
<path d="M242.054 3.61613C241.631 0.468503 243.091 -0.136809 245.745 0.0326786C249.527 0.282875 253.309 0.0326777 257.091 0.129528C257.916 0.129528 258.922 -0.362792 259.542 0.726772C259.542 1.69527 259.542 2.6557 259.542 3.6242V13.4384C259.504 19.3139 259.459 25.1895 259.436 31.0651C259.436 31.6623 259.156 32.5017 260.193 32.5905C261.055 32.6631 261.229 31.9286 261.418 31.3233C262.568 27.6915 263.687 24.0596 264.814 20.4035L265.261 19.2413C265.637 18.7537 265.836 18.1375 265.82 17.5061C267.552 12.373 269.353 7.27222 270.986 2.10688C271.463 0.597637 272.068 0.0246085 273.611 0.0649627C279.004 0.194096 284.405 0.14567 289.806 0.161812C289.836 23.4058 289.876 46.6499 289.927 69.8939C289.927 71.6937 289.231 71.9035 287.839 71.8793C283.497 71.8067 279.155 71.8793 274.814 71.8793C274.004 71.8793 273.172 71.9923 272.545 71.3063C272.696 66.1087 272.794 60.911 272.484 55.7134C272.484 54.9063 272.484 54.1719 272.484 53.3971C272.545 49.176 272.613 44.9631 272.666 40.742C272.666 40.1851 272.749 39.491 272.053 39.3458C271.357 39.2005 270.979 39.7896 270.797 40.4918C270.661 41.0487 270.449 41.5814 270.275 42.106C266.972 52.0277 263.672 61.9441 260.374 71.8551L257.772 71.96L242.591 71.8874L242.069 71.2256C242.069 64.3169 242.069 57.4029 242.069 50.4835C242.316 40.2605 242.316 30.0374 242.069 19.8143V5.92439C242.288 5.17174 242.282 4.36545 242.054 3.61613ZM282.143 60.9191V59.765C282.179 43.0853 282.216 26.4055 282.257 9.72576C282.257 9.19308 282.4 8.61199 281.735 8.26494C279.541 7.13502 275.578 8.65234 274.625 11.0252C268.261 26.9516 261.879 42.8781 255.48 58.8046C255.132 59.6762 255.117 61.1693 253.695 60.9191C252.182 60.6528 252.939 59.2162 252.939 58.3607C252.886 45.6329 252.901 32.9052 252.901 20.1694C252.901 16.699 252.901 13.2285 252.901 9.75804C252.901 8.61198 252.493 8.24073 251.456 8.27301C250.42 8.30529 249.845 8.42636 249.943 9.66119C249.943 10.3311 249.943 11.009 249.943 11.687V58.8046C249.943 63.9538 249.943 63.9053 254.769 63.7197C255.995 63.6713 256.766 63.3565 257.197 62.0248C257.719 60.4107 258.423 58.7965 259.058 57.2469C264.983 42.5041 270.898 27.7614 276.803 13.0187C277.348 11.6466 277.877 10.5974 279.511 11.2108L279.609 60.3622C279.844 61.5325 278.414 63.4291 280.774 63.6713C283.134 63.9134 282.105 62.1055 282.151 60.9353L282.143 60.9191Z" fill="#5D371C"/>
<path d="M339.705 71.911C334.66 71.911 329.607 71.7738 324.577 71.911C322.384 71.9837 321.65 71.4348 321.703 68.9571C321.854 62.6215 321.703 56.2697 321.657 49.9341C322.066 44.4944 322.066 44.6074 317.55 44.5024C315.478 44.5024 314.812 45.0513 314.865 47.3676C315.016 54.6878 314.865 62.0081 314.971 69.3364C314.971 71.3864 314.419 71.9272 312.55 71.8707C308.216 71.7254 303.867 71.6689 299.54 71.8707C297.203 71.9837 296.734 71.1443 296.749 68.8037C296.848 52.2262 296.817 35.6568 296.81 19.0793C296.81 13.3005 296.719 7.5299 296.674 1.75117C296.749 1.20235 296.832 0.645465 296.908 0.137002L313.186 0.00786888C314.865 -0.161619 314.963 0.911801 314.956 2.31613C314.91 9.45075 315.092 16.5854 314.865 23.7039C314.752 27.3761 316.93 26.3995 318.753 26.569C320.75 26.7627 321.892 26.4641 321.778 23.7442C321.597 16.7145 321.778 9.67674 321.68 2.64703C321.68 0.677746 322.051 -0.0324877 324.017 0.0401499C328.442 0.201567 332.875 0.23385 337.292 0.0401499C339.471 -0.0567002 339.939 0.710031 339.932 2.89723C339.866 24.6724 339.851 46.4636 339.887 68.2711C339.887 69.3283 339.947 70.3856 339.985 71.4429C339.902 71.5721 339.803 71.7173 339.705 71.911ZM304.427 35.8263C304.427 44.3087 304.427 52.775 304.427 61.2817C304.427 62.2744 303.859 63.703 305.781 63.703C307.702 63.703 307.225 62.4197 307.225 61.3544C307.225 54.026 307.316 46.6896 307.225 39.3613C307.225 37.2952 307.8 36.7786 309.661 36.819C315.445 36.9481 321.231 36.9481 327.02 36.819C328.904 36.819 329.494 37.3275 329.463 39.3855C329.35 46.7138 329.418 54.0422 329.463 61.3705C329.463 62.4601 329.115 63.7433 330.931 63.7191C332.58 63.7191 332.277 62.5731 332.277 61.5561C332.277 44.4836 332.277 27.4138 332.277 10.3466C332.277 9.3539 332.618 8.2482 330.954 8.1917C329.093 8.11907 329.441 9.38619 329.441 10.4677C329.441 17.6023 329.358 24.745 329.441 31.8796C329.441 33.8489 328.858 34.3009 327.172 34.3009C321.385 34.196 315.599 34.1718 309.812 34.3009C307.823 34.3493 307.18 33.8409 307.225 31.6052C307.369 24.6724 307.293 17.7234 307.225 10.7824C307.225 9.69288 307.83 8.15942 305.713 8.22399C303.814 8.28048 304.404 9.68481 304.404 10.6452C304.412 19.047 304.427 27.4326 304.427 35.8263Z" fill="#5D371C"/>
<path d="M142.119 0.00838711L142.687 0.137521L142.936 0.678266C142.936 1.84047 142.936 3.00267 142.936 4.17294C142.883 5.22215 142.785 6.27136 142.785 7.32057C142.785 27.6107 142.785 47.8981 142.785 68.1828C142.785 69.4257 142.664 70.6686 142.596 71.9116L141.582 71.9842H104.133H100.351L99.6401 71.3789C99.6401 65.584 99.6401 59.7864 99.6401 53.9862L100.343 53.397H103.596C110.124 53.4455 116.651 53.4697 123.179 53.5584C124.556 53.5584 124.949 53.0096 124.571 51.6699V48.2317C124.987 46.6175 124.654 45.8104 122.801 45.8104C117.506 45.9638 112.166 45.9234 106.856 45.9557C105.147 45.9557 103.437 45.762 101.743 45.9073C100.049 46.0526 99.64 45.4472 99.6627 43.6797C99.7308 37.2715 99.6249 30.8552 99.5871 24.4469C99.6325 17.1347 99.7308 9.82253 99.6779 2.50228C99.6779 0.718622 99.9729 -0.0238986 101.856 0.0406682C106.455 0.194014 111.062 0.185943 115.668 0.0406682C117.483 -0.0158278 117.899 0.605627 117.869 2.46192C117.771 9.96781 117.824 17.4818 117.869 24.9876C117.869 25.7302 117.567 27.0054 118.232 27.0941C120.184 27.3685 122.317 27.6995 124.117 27.0941C125.403 26.6664 124.601 24.5922 124.586 23.2363C124.586 19.7766 124.586 16.3142 124.586 12.8491C124.586 8.7814 124.586 4.71638 124.586 0.654054C124.828 0.0164573 125.403 0.0971653 125.872 -0.0400391L142.119 0.00838711ZM135.145 35.8833C135.145 27.4896 135.145 19.0879 135.145 10.6942C135.145 9.76604 135.841 8.27293 133.882 8.21644C131.794 8.13573 132.369 9.66112 132.369 10.7507C132.331 18.0144 132.279 25.2298 132.369 32.4613C132.407 34.5274 131.81 35.0359 129.941 34.9955C124.238 34.8664 118.537 34.8664 112.839 34.9955C110.797 35.052 110.063 34.5839 110.116 32.203C110.283 24.9392 110.184 17.7239 110.169 10.4924C110.169 9.40285 110.517 8.15994 108.656 8.20837C106.954 8.25679 107.348 9.40285 107.348 10.3633C107.348 18.757 107.386 27.1587 107.295 35.5524C107.295 37.3522 107.771 37.8203 109.435 37.7961C116.311 37.6912 123.187 37.7961 130.062 37.7073C131.772 37.7073 132.4 38.0866 132.331 40.0721C132.21 46.2463 132.226 52.4285 132.331 58.5946C132.369 60.5155 131.847 61.0159 130.062 61.0159C123.187 60.9029 116.303 60.9433 109.428 61.0159C108.634 61.0159 107.355 60.3057 107.272 62.2023C107.189 64.099 108.482 63.7358 109.466 63.7358C117.249 63.7358 125.032 63.647 132.808 63.7842C134.873 63.7842 135.153 62.9771 135.138 61.1128C135.145 52.6707 135.145 44.277 135.145 35.8833Z" fill="#5D371C"/>
<path d="M70.2163 20.8708L70.3448 21.6295C70.3801 22.6832 70.4888 23.7326 70.6701 24.7691C70.8668 25.5761 70.6701 26.8836 72.1073 26.7222C73.3024 26.585 73.0754 25.5439 73.2116 24.7448C74.0335 19.6441 74.8555 14.5325 75.6774 9.41023L75.7909 8.26417C76.4537 5.79759 76.8446 3.25694 76.9557 0.693719L77.3944 0.12069L78.6047 0.0157678H95.4194L96.8943 0.217539L90.6087 26.1976L90.3893 27.0047C89.9912 27.6162 89.8262 28.3665 89.9279 29.1031C89.0883 31.6212 87.8252 34.1635 88.4605 36.8672C89.9733 43.2029 91.6828 49.4739 93.3241 55.7692C93.2517 56.014 93.2497 56.2764 93.3185 56.5224C93.3873 56.7684 93.5236 56.9868 93.7099 57.1493L93.8839 58.0855C93.8073 58.3084 93.8022 58.5521 93.8692 58.7784C93.9363 59.0048 94.0718 59.201 94.2545 59.3365C94.2107 59.4235 94.2005 59.5252 94.2259 59.6202C94.2513 59.7151 94.3104 59.7958 94.3907 59.8449C94.3 60.6633 94.4968 61.4885 94.9428 62.1613L95.1849 63.4042L95.5177 64.4695L97.1288 71.4266L96.5237 72.04L77.6138 71.8947L76.4716 66.7536L76.3431 65.6075C76.3416 64.0721 76.0722 62.5504 75.5488 61.1201L75.2539 59.2316C74.5655 54.8975 73.8621 50.5715 73.1965 46.2375C73.0679 45.4304 72.8712 44.7767 71.8879 44.8332C70.7836 44.9058 70.9197 45.721 70.9121 46.4473L70.7079 47.1899L70.5491 48.1987C70.4432 48.8282 70.3448 49.4578 70.239 50.0954C70.0755 50.3214 69.9666 50.5868 69.9217 50.8682C69.8769 51.1497 69.8975 51.4386 69.9818 51.7095C69.8986 52.1696 69.8154 52.6296 69.7397 53.0977C69.1876 54.0985 69.3086 55.2203 69.1951 56.326L69.1422 56.544C68.2969 60.1066 67.6727 63.7248 67.2739 67.375L66.9184 69.0296C66.7915 69.2035 66.7106 69.4105 66.684 69.629C66.6573 69.8476 66.6861 70.0697 66.7671 70.2725C66.7066 72.1449 65.4283 71.8866 64.2785 71.8866L49.2792 72.0077H48.1976L47.1613 71.9431C46.6621 69.5219 48.2959 67.4073 48.2354 65.0264L48.3489 64.9215L48.2959 64.7601C48.9382 63.429 49.3118 61.9691 49.3927 60.4745C50.1015 58.7794 50.5828 56.9862 50.8223 55.1477L51.0038 54.0259C52.3697 49.8611 53.4417 45.5932 54.2109 41.2578L54.2941 41.0318C54.4704 40.8342 54.5969 40.5921 54.6617 40.3281C54.7265 40.0642 54.7276 39.787 54.6648 39.5226L54.869 38.772C55.7464 36.9399 56.1095 35.0836 55.1035 33.1224L54.7101 31.944C54.7833 31.6047 54.7788 31.2516 54.6972 30.9145C54.6156 30.5773 54.4592 30.2661 54.2412 30.007L54.0748 29.0466L53.81 28.07L53.5226 26.7464C53.0688 24.987 52.6225 23.2194 52.1686 21.46L51.919 20.3704C51.919 20.2817 51.9947 20.1767 51.972 20.1041C51.9201 19.9354 51.8569 19.7709 51.7829 19.6118L51.7299 19.4423C51.0341 16.3834 50.497 13.2762 49.3397 10.3545L49.0523 8.66771L47.0554 0.0722634C53.0083 0.0722634 58.7871 0.177185 64.5509 0.0157678C66.3586 -0.0326573 66.8881 0.758285 67.1075 2.36438C67.4522 5.70304 68.0261 9.01021 68.8245 12.2592L68.9228 13.4053L70.2163 20.8708ZM86.6603 8.52244C84.7617 7.89291 83.4683 8.24803 82.9388 10.4433C81.3277 17.134 79.5351 23.7925 78.0903 30.5236C77.4701 33.4049 76.5095 34.9625 73.4914 34.3814C72.0588 34.1313 70.5975 34.1313 69.1649 34.3814C67.1453 34.7123 66.6007 33.5743 66.1393 31.831C64.3769 24.5673 62.4102 17.3842 60.7235 10.1124C60.2772 8.20767 59.2561 7.99783 58.008 8.36102C56.6238 8.76456 57.5617 9.91062 57.7508 10.6854C59.6494 18.4012 61.5328 26.1169 63.5448 33.8084C63.8966 35.0944 63.8966 36.4609 63.5448 37.747C61.5631 45.4412 59.6393 53.1488 57.7735 60.8699C57.5466 61.79 56.4347 63.1459 58.1215 63.6947C59.6343 64.1951 60.3075 63.2347 60.6932 61.6528C62.0321 56.0678 63.4919 50.515 64.9366 44.9542C65.6098 42.3958 65.693 38.8607 67.2739 37.5855C68.8547 36.3104 72.1224 37.2708 74.6336 37.0609C76.4111 36.9076 77.0994 37.5855 77.5533 39.4338C79.3989 47.0607 81.5017 54.6231 83.3549 62.25C83.7633 63.9449 84.7466 63.8642 85.7753 63.7109C87.4848 63.4768 86.4258 62.2581 86.2443 61.5237C84.3533 53.8079 82.4245 46.1003 80.4579 38.4007C79.9967 36.7493 79.9809 34.9927 80.4125 33.3322C82.5758 25.0354 84.5953 16.7466 86.6603 8.48209V8.52244Z" fill="#5D371C"/>
<path d="M237.145 0.0246711C239.414 0.468567 237.834 2.49435 238.431 3.6162V4.18923C238.431 7.56284 238.227 10.9445 238.393 14.3101C238.514 16.7313 238.061 17.8693 235.504 17.5384C233.702 17.4202 231.895 17.4391 230.096 17.5949C224.99 17.5949 219.892 17.5949 214.794 17.4496C212.804 17.3931 213.198 18.628 213.342 19.8709V21.0089C213.342 22.1711 213.342 23.3413 213.342 24.5035V25.6496C213.273 26.1258 212.971 26.715 213.803 26.7714H214.885L225.739 26.8441C226.601 32.2919 225.951 37.7801 226.102 43.2521C226.14 44.6242 225.066 44.3175 224.317 44.3175C221.246 44.3175 218.175 44.3982 215.104 44.3175C213.735 44.2771 213.122 44.6403 213.228 46.2303C213.41 48.9017 212.245 52.3157 213.682 54.0509C215.119 55.7861 218.281 54.5029 220.694 54.5352C225.845 54.6159 230.996 54.6562 236.147 54.5352C237.985 54.4787 238.416 55.1082 238.371 56.9564C238.257 61.2905 238.28 65.6326 238.371 69.9666C238.371 71.3871 238.045 72.1538 236.623 72.0489C223.956 71.8229 211.284 71.8229 198.607 72.0489H195.899L195.354 72.0005L194.832 71.379L194.787 69.1111C194.832 54.0267 194.901 38.9342 194.916 23.8498C194.916 17.6998 194.832 11.5498 194.787 5.40793V3.0351V0.718764C194.991 0.20223 195.468 0.153806 195.884 0.0166016L237.145 0.0246711ZM216.836 8.25693C212.857 8.25693 208.879 8.33764 204.9 8.25693C203.213 8.20851 202.548 8.59591 202.563 10.5975C202.628 27.5732 202.628 44.5434 202.563 61.5084C202.563 63.3404 203.168 63.7843 204.756 63.7682C212.714 63.7117 220.641 63.7682 228.621 63.7682C229.544 63.7682 230.663 64.1556 230.693 62.3719C230.723 60.5883 229.506 61.0483 228.659 61.0483C221.7 61.0483 214.733 60.9918 207.774 61.0483C206.262 61.0483 205.505 60.9353 205.558 58.9418C205.694 52.3883 205.679 45.8267 205.558 39.2732C205.558 37.3765 206.171 37.0214 207.744 37.0941C210.452 37.2071 213.168 37.1748 215.875 37.0941C216.889 37.0941 218.447 37.7639 218.432 35.6171C218.417 33.4702 216.874 34.463 216.034 34.4226C213.236 34.2935 210.422 34.2531 207.631 34.4226C205.876 34.5275 205.535 33.8415 205.558 32.1386C205.649 25.9644 205.672 19.7902 205.558 13.624C205.52 11.6305 205.997 11.0172 207.941 11.0494C214.9 11.1786 221.859 11.0494 228.817 11.1059C229.884 11.1059 230.784 11.1544 230.716 9.49177C230.648 7.82918 229.551 8.32957 228.764 8.3215C224.786 8.23272 220.807 8.25693 216.836 8.25693Z" fill="#5D371C"/>
<path d="M2.01951 71.9923C0.612613 72.0488 -0.0151978 71.5404 -0.0151978 69.8293C0.0352286 47.231 0.0352286 24.6487 -0.0151978 2.08267C-0.0151978 0.912397 0.030186 -0.0561051 1.49759 0.0165325C2.03464 0.0165325 2.57168 0.121454 3.10872 0.121454C16.1036 0.121454 29.0985 0.169878 42.0934 0.0730282C43.9919 0.0730282 44.529 0.597633 44.4684 2.62341C44.3247 7.52242 43.9919 12.486 44.5138 17.3285C45.2702 24.3421 43.5381 29.8544 37.9861 33.8495C35.8001 35.4637 36.3675 36.7792 38.3265 37.9899C39.7186 39.8815 41.3128 41.5933 43.0767 43.0906L43.7423 43.8493L44.4079 44.729C44.4079 52.6304 44.3021 60.5317 44.4836 68.425C44.5441 71.1207 44.0298 71.9681 41.3143 71.9439C28.2211 71.8148 15.1279 71.952 2.01951 71.9923ZM7.74543 36.0528C7.74543 44.4385 7.74543 52.8321 7.74543 61.2258C7.74543 63.0175 8.10094 63.7843 10.0146 63.7601C18.335 63.6471 26.6553 63.6713 34.9757 63.7601C36.375 63.7601 36.8742 63.3727 36.844 61.8231C36.7532 57.0935 36.7532 52.3667 36.844 47.6426C36.8469 47.1244 36.7403 46.6123 36.5321 46.1441C36.3238 45.676 36.0194 45.2641 35.6413 44.9388C33.2738 42.4127 30.9668 39.83 28.5463 37.3684C27.4193 36.2223 27.4496 35.4717 28.5993 34.358C30.929 32.0901 33.1377 29.6285 35.4068 27.3202C35.883 26.8867 36.2581 26.3408 36.5023 25.7259C36.7465 25.1109 36.8531 24.4437 36.8137 23.7771C36.7154 19.3381 36.7003 14.8992 36.8137 10.4683C36.8667 8.70883 36.4431 8.17616 34.7336 8.20037C26.504 8.30529 18.2669 8.3295 10.0449 8.20037C8.01015 8.20037 7.70003 9.00745 7.72272 10.8718C7.80592 19.2574 7.76058 27.6592 7.76058 36.0528H7.74543Z" fill="#5D371C"/>
<path d="M146.975 18.2967L146.537 17.4897C146.59 16.4485 146.68 15.4074 146.703 14.3662C146.824 9.60445 146.491 4.82651 146.96 0.0727778H147.006L189.908 -0.016002C190.076 -0.0421151 190.248 -0.0265845 190.409 0.0293824C190.57 0.0853493 190.718 0.180247 190.839 0.30671C190.96 0.433173 191.053 0.587798 191.109 0.758583C191.166 0.929367 191.184 1.11172 191.164 1.29148C191.164 6.89264 191.139 12.4938 191.088 18.095L191.028 18.216L182.836 18.442C182.144 18.1917 181.395 18.1917 180.703 18.442C179.41 18.2322 177.965 17.5462 177.98 20.0562C178.051 36.7628 178.093 53.4722 178.109 70.1842C178.025 70.7492 177.935 71.3141 177.851 71.8791L160.598 71.9679L160.364 71.8629H160.114C159.796 70.6592 159.699 69.4015 159.827 68.1584C159.827 52.5817 159.758 37.005 159.902 21.4282C159.902 18.6519 159.093 18.0062 156.71 18.1999C153.473 18.4501 150.22 18.2806 146.975 18.2967ZM167.67 15.2218V60.9673C167.738 61.9681 166.778 63.3886 168.563 63.7033C170.62 64.0988 170.386 62.5734 170.386 61.2094C170.386 45.3179 170.424 29.4264 170.34 13.5269C170.34 11.5011 170.817 10.8796 172.723 10.9926C175.696 11.1702 178.683 11.0411 181.664 11.0491C182.586 11.0491 183.434 11.1863 183.456 9.66901C183.479 8.15169 182.617 8.27276 181.701 8.27276H156.234C155.371 8.27276 154.38 7.99028 154.403 9.5883C154.403 11.0088 155.16 11.0572 156.166 11.0491C159.237 11.0088 162.307 11.1056 165.378 10.9926C166.959 10.9361 167.791 11.3316 167.542 13.2121C167.517 13.885 167.56 14.5587 167.67 15.2218Z" fill="#5D371C"/>
<path d="M22.3137 60.9433C19.0612 60.9433 15.8087 60.8949 12.5562 60.9433C11.2854 60.9433 10.6349 60.8142 10.6576 59.1274C10.7585 52.4824 10.7585 45.8347 10.6576 39.1843C10.6576 37.4652 11.2174 37.1101 12.6697 37.1505C16.1945 37.2473 19.7193 37.1505 23.2592 37.1505C23.6127 37.0893 23.9744 37.1126 24.3184 37.2187C24.6624 37.3248 24.9801 37.511 25.2485 37.7638C27.5177 40.29 29.7037 42.9292 32.1468 45.2455C33.879 46.8597 34.053 48.7725 33.9773 50.9435C33.8146 53.2512 33.8146 55.5687 33.9773 57.8764C34.2799 60.5963 33.2209 61.1047 30.9517 60.9514C28.1001 60.798 25.2031 60.9433 22.3137 60.9433ZM18.3351 49.0469C18.3351 50.3867 18.3351 51.7264 18.3351 53.0823C18.3351 53.7199 18.1913 54.527 19.1595 54.5351C21.227 54.5351 23.2945 54.5351 25.362 54.5351C26.2923 54.5351 26.1184 53.728 26.2621 53.0985C27.2983 48.7644 24.7493 46.2302 22.0338 43.9784C20.1807 42.4449 18.3577 43.6475 18.3351 46.1656C18.3199 47.126 18.3275 48.0865 18.3351 49.0469Z" fill="#5D371C"/>
<path d="M22.2608 11.0325C25.3317 11.0325 28.4027 11.1375 31.4737 10.9922C33.2588 10.9115 33.9622 11.3473 33.9849 13.4699C34.1286 24.979 33.8563 25.7215 25.5133 33.5502C25.2297 33.8473 24.8922 34.0793 24.5215 34.232C24.1507 34.3847 23.7546 34.4548 23.3575 34.438C19.7495 34.438 16.134 34.3734 12.5259 34.438C11.1342 34.438 10.6501 34.0425 10.6652 32.5091C10.7358 25.9609 10.7358 19.4128 10.6652 12.8646C10.6652 11.2908 11.1569 10.9196 12.5184 10.9599C15.7709 11.0487 19.0234 10.9599 22.2683 10.9599L22.2608 11.0325ZM18.3199 22.9128C18.2593 23.7752 18.2593 24.6412 18.3199 25.5036C18.4561 26.4398 17.6619 27.828 19.0385 28.2315C19.6413 28.4521 20.2922 28.4746 20.9071 28.2962C21.522 28.1178 22.0726 27.7466 22.4877 27.2307C23.4332 26.0685 24.5072 25.0355 25.4679 23.8894C26.9353 22.1542 26.368 19.9589 26.0579 18.1268C25.8082 16.6983 24.0307 17.4892 22.9566 17.465C18.3199 17.3924 18.3199 17.4408 18.3199 22.9128Z" fill="#5D371C"/>
</g>
<defs>
<clipPath id="clip0_1027_231">
<rect width="340" height="72" fill="white"/>
</clipPath>
</defs>
</svg>
