<svg width="30" height="46" viewBox="0 0 30 46" fill="none" xmlns="http://www.w3.org/2000/svg">
<path d="M15.339 0.364137C22.4873 0.170806 29.1559 5.88789 29.809 13.1811C30.0611 15.7553 29.6055 18.3485 28.4895 20.6934C24.9945 28.1155 21.5017 35.5379 18.0111 42.9606C17.7132 43.5931 17.4211 44.2292 17.0054 44.8018C16.0685 46.0907 14.7433 46.1607 13.7064 44.962C13.4341 44.6471 13.2059 44.2982 13.0278 43.9245C9.28964 35.9887 5.46852 28.0897 1.8576 20.0978C-1.9654 11.6372 3.69558 1.86936 13.0523 0.494866C13.8177 0.380708 14.5745 0.372423 15.339 0.364137ZM15.2258 22.8587C20.0008 22.9066 23.7663 19.2618 23.8031 14.5556C23.838 10.0639 20.0574 6.36202 15.3889 6.31967C10.6573 6.2764 6.84465 9.87697 6.7947 14.4377C6.74286 19.1504 10.4066 22.8108 15.2258 22.8587Z" fill="#57270E"/>
</svg>
