<svg width="64" height="53" viewBox="0 0 64 53" fill="none" xmlns="http://www.w3.org/2000/svg">
<path d="M32.9676 41.8578C30.4603 43.9848 28.0814 46.0174 25.6822 48.0297C24.4116 49.0966 24.094 49.0223 23.3506 47.53C20.8027 42.4588 18.2819 37.3672 15.6867 32.3163C15.3547 31.7295 14.8292 31.276 14.1999 31.0333C10.0435 29.5612 5.87368 28.1431 1.69707 26.7926C0.669815 26.4482 -0.0262726 25.9418 0.000760531 24.7668C0.0277936 23.5918 0.723883 23.1664 1.65652 22.8153L60.2305 0.58556C61.2442 0.200658 62.3052 -0.440852 63.3325 0.450498C64.3598 1.34185 63.9678 2.5168 63.6839 3.64449C59.8858 18.7974 56.0966 33.9504 52.3165 49.1033C51.4785 52.4797 48.3629 53.5601 45.6056 51.4668L32.9676 41.8578ZM50.7148 11.8625L50.5458 11.6261L18.5319 30.8442L24.486 43.1678C24.6851 42.4404 24.7402 41.6811 24.6482 40.9327C24.513 39.3525 24.2832 37.7792 24.2629 36.2058C24.2828 35.541 24.5588 34.9096 25.0334 34.4434C32.2039 28.1026 39.415 21.8159 46.6193 15.5359C47.9912 14.2935 49.3496 13.078 50.7148 11.8625Z" fill="#5D371C"/>
</svg>
