<svg width="68" height="44" viewBox="0 0 68 44" fill="none" xmlns="http://www.w3.org/2000/svg">
<path d="M50.6268 21.8277C52.3636 22.6934 54.0154 23.7292 55.5594 24.9207C61.533 29.4622 65.8868 35.9034 67.9474 43.2481C68.0747 43.6867 67.9806 43.775 67.5574 43.7722C63.8836 43.7589 60.2097 43.7589 56.5359 43.7722C56.374 43.7986 56.2084 43.7585 56.0749 43.6605C55.9414 43.5625 55.8506 43.4144 55.8222 43.2481C54.0627 38.1016 51.1192 33.895 46.5657 30.9757C44.2435 29.5025 41.6437 28.554 38.9386 28.1932C38.5181 28.1305 38.3853 28.2188 38.3853 28.6859C38.4047 33.5276 38.3853 38.3523 38.4075 43.1826C38.4075 43.6298 38.3245 43.7693 37.8542 43.775C32.9908 43.8206 28.2187 43.2453 23.6043 41.5905C15.6037 38.7197 9.71954 33.314 5.72758 25.6698C3.25715 20.9391 1.78818 15.8638 0.92505 10.5749C0.391892 7.25925 0.083149 3.90943 0.00105754 0.549678C-0.0127746 0.108225 0.106183 0 0.529447 0C4.0336 0.0170885 7.53775 0.0170885 11.0419 0C11.5177 0 11.656 0.0996867 11.6699 0.618038C11.8276 6.3142 12.6049 11.9107 14.713 17.2309C16.2677 21.1442 18.4393 24.616 21.6788 27.296C23.1966 28.5732 24.9375 29.5399 26.8078 30.1441C27.4164 30.3349 27.4192 30.3321 27.4192 29.6856V3.99586C27.4192 2.83954 27.4358 1.68321 27.4192 0.529739C27.4192 0.119615 27.5271 0 27.9337 0C31.2535 0.0170885 34.5732 0.0170885 37.8929 0C38.33 0 38.4185 0.13386 38.4185 0.569616C38.4019 5.90977 38.4185 11.2528 38.4185 16.5929C38.4185 17.3619 38.4185 17.3676 39.1627 17.2167C41.487 16.7153 43.6581 15.6401 45.4895 14.0838C49.8328 10.5436 52.7238 5.97243 54.4058 0.569616C54.5358 0.1481 54.6824 0 55.1223 0C58.3728 0.0199366 61.6206 0 64.8684 0C65.5628 0 65.5628 -2.10501e-06 65.4217 0.692082C64.4092 5.75028 62.196 10.2104 59.0589 14.2005C56.7039 17.2318 53.8498 19.8135 50.6268 21.8277Z" fill="#5D371C"/>
</svg>
