<svg width="225" height="185" viewBox="0 0 225 185" fill="none" xmlns="http://www.w3.org/2000/svg">
<path d="M0.893089 10.8809C0.779708 8.15181 9.7935 5.67748 12.4013 4.94972C15.9648 3.99961 19.617 3.3902 23.3047 3.13033C28.3297 2.68046 33.3759 2.48611 38.4222 2.54811C53.0106 2.73005 51.272 1.83852 67.5044 1.94768C77.6709 1.94768 77.5009 2.36617 92.3349 2.54811C102.086 2.65728 106.98 2.71186 110.514 2.54811C120.945 2.02049 124.648 0.874265 133.53 1.34731C135.779 1.47466 147.703 2.12964 148.062 4.98609C148.251 6.4598 144.963 6.89647 141.391 10.9173C138.661 13.9041 136.969 17.6384 136.553 21.5971C136.122 24.6889 136.788 27.8303 138.443 30.5122C140.786 33.9508 144.585 34.8969 151.161 36.4434C156.908 37.8042 162.819 38.4161 168.735 38.2628C174.262 38.0981 179.75 37.298 185.08 35.8794C195.814 32.9502 196.664 29.8208 203.259 29.9481C208.4 30.1461 213.315 32.0339 217.186 35.2972C219.076 36.9528 223.668 40.7553 223.838 45.977C223.838 48.0329 223.347 51.5989 212.934 60.805C206.729 66.5513 199.796 71.5211 192.299 75.5967C183.739 80.2907 184.192 78.7079 169.887 85.6761C160.552 90.2246 154.524 93.7178 148.685 98.7393C145.243 101.344 142.361 104.57 140.201 108.237C137.442 113.276 138.311 115.423 135.968 117.133C132.321 119.717 128.617 115.969 118.96 116.533C115.181 116.77 111.402 116.988 108.057 119.499C102.388 123.683 102.048 131.034 102.01 131.961C101.783 137.547 104.693 141.823 110.495 150.374C113.462 154.708 116.692 158.87 120.17 162.837C123.638 166.396 126.876 170.157 129.864 174.099C133.435 179.065 135.703 182.213 134.72 183.596C133.738 184.978 128.485 183.96 112.914 177.665C98.7976 171.97 91.7491 169.132 85.6454 165.802C67.1643 155.704 53.7475 148.372 45.0739 133.162C36.4002 117.952 36.5514 102.415 36.5892 95.1733C36.8035 86.6129 37.8154 78.0882 39.6127 69.7019C43.2598 51.2168 46.8313 48.8334 45.0739 40.5916C43.1842 31.9495 36.4002 21.4698 26.8951 18.6315C22.9079 17.4489 20.1868 18.1221 11.1541 15.6659C5.63619 14.1376 0.968676 12.8277 0.893089 10.8809Z" fill="#FFD4BE" stroke="#FDE3D6" stroke-miterlimit="10"/>
<path d="M91.339 42.3651C98.4873 42.1718 105.156 47.8889 105.809 55.1821C106.061 57.7562 105.606 60.3495 104.489 62.6944C100.994 70.1165 97.5017 77.5389 94.0111 84.9616C93.7132 85.594 93.4211 86.2302 93.0054 86.8028C92.0685 88.0917 90.7433 88.1617 89.7064 86.963C89.4341 86.6481 89.2059 86.2992 89.0278 85.9255C85.2896 77.9897 81.4685 70.0907 77.8576 62.0987C74.0346 53.6382 79.6956 43.8703 89.0523 42.4958C89.8177 42.3817 90.5745 42.3734 91.339 42.3651ZM91.2258 64.8597C96.0008 64.9076 99.7663 61.2628 99.8031 56.5566C99.838 52.0648 96.0574 48.363 91.3889 48.3206C86.6573 48.2774 82.8447 51.8779 82.7947 56.4387C82.7429 61.1514 86.4066 64.8118 91.2258 64.8597Z" fill="#57270E"/>
</svg>
