<svg width="494" height="259" viewBox="0 0 494 259" fill="none" xmlns="http://www.w3.org/2000/svg">
<path d="M2.03458 65.4908C4.46493 58.9028 10.3299 55.4468 18.4444 50.7848C25.4306 46.763 33.0275 43.6652 41.0005 41.5868C48.854 39.5528 52.2886 39.6788 71.1288 37.9868C75.0254 37.6088 87.6793 36.4208 99.8511 34.9268C116.14 32.9108 128.995 30.6968 136.005 29.4008C147.524 27.4953 158.922 25.0439 170.15 22.0568C176.397 20.2568 183.889 17.8449 198.873 12.8589C216.95 6.82887 220.083 5.47884 228.278 3.66084C237.437 1.64484 244.346 0.0608788 253.586 0.600878C261.72 1.03288 261.801 2.50883 278.874 6.12683C288.743 8.40179 298.831 9.83617 309.002 10.4108C315.415 10.8611 321.867 10.4485 328.143 9.18685C334.731 7.67485 335.595 6.23485 340.456 5.58685C348.631 4.36285 353.913 7.29686 362.329 9.87086C364.599 10.5549 373.898 11.6709 392.457 14.1549C412.724 16.7829 422.867 18.0788 426.603 18.4388C448.697 20.5448 459.724 21.6068 466.955 21.5168C478.303 21.3548 486.699 20.3288 490.876 25.1168C493.126 27.7088 494.17 31.9748 492.242 34.3148C489.571 37.5728 483.063 34.6928 470.369 37.3748C462.335 39.0668 461.13 40.9748 460.808 41.6588C458.418 46.2128 465.388 52.3508 464.223 53.3048C463.058 54.2588 452.372 45.9608 438.232 36.1508C425.699 27.4388 422.726 26.3588 419.774 25.7288C417.765 25.2968 402.661 22.2728 393.783 31.2368C386.452 38.6708 388.802 48.8408 389.003 49.6328C390.168 54.2768 392.497 55.8968 404.729 68.0108C411.293 74.4392 417.455 81.1875 423.188 88.2248C430.379 97.0987 431.483 100.015 430.72 102.931C429.435 107.791 423.289 111.427 417.725 112.129C411.84 112.867 410.594 109.825 399.949 107.845C394.131 106.419 387.992 106.419 382.173 107.845C379.241 108.673 372.753 110.491 371.91 114.577C371.066 118.663 376.248 122.659 379.422 124.387C383.881 126.799 385.287 125.233 394.466 127.447C399.604 128.756 404.632 130.392 409.51 132.343C408.927 135.166 407.77 137.869 406.095 140.317C403.625 143.215 400.07 142.639 387.637 144.601C376.69 146.401 374.923 147.481 373.958 148.903C372.231 151.441 373.677 154.015 374.641 159.307C375.465 163.753 374.963 164.707 374.641 176.461C374.38 185.893 374.762 183.247 374.641 202.201C374.481 227.131 373.858 226.321 374.641 231.613C375.364 236.527 375.585 240.397 376.007 248.155C376.469 256.273 376.208 257.587 375.324 257.965C372.291 259.242 362.53 248.965 356.183 237.751C351.704 229.777 351.382 225.619 345.236 201.589C339.652 179.755 338.086 175.975 333.627 172.177C323.584 163.627 309.645 164.149 308.319 164.221C298.859 164.689 292.15 168.739 286.446 172.177C281.356 175.289 276.755 179 272.768 183.211C270.88 185.191 268.449 188.035 261.821 195.469C257.061 200.869 256.197 201.715 254.992 201.589C251.276 201.229 251.778 192.013 246.094 180.151C242.639 172.951 238.803 164.887 230.367 160.531C220.324 155.347 214.299 160.945 204.396 155.023C202.87 154.123 203.131 154.069 191.401 142.153C182.162 132.775 180.394 131.173 177.04 130.507C174.003 130.014 170.873 130.268 167.984 131.241C165.095 132.214 162.554 133.87 160.63 136.033C154.705 142.891 158.762 152.467 160.63 156.859C163.029 162.09 166.504 166.871 170.874 170.953C176.196 176.011 180.374 177.703 179.771 179.539C179.068 181.645 172.38 182.617 166.776 181.339C163.181 180.529 155.95 177.901 144.903 158.659C138.275 147.121 139.078 144.925 131.225 129.859C124.335 116.647 120.76 109.969 114.815 107.197C106.459 103.273 101.518 107.197 90.19 102.283C83.9434 99.5647 84.3652 97.8727 75.8489 92.4907C70.5062 89.1067 61.2668 83.2568 49.1753 80.8447C39.4753 79.2148 29.5441 79.0081 19.7701 80.2328C11.6354 81.1868 7.35725 82.6808 4.04313 80.2328C-0.094488 77.0288 0.367479 69.9368 2.03458 65.4908Z" fill="#FFD4BE" stroke="#FFD4BE" stroke-miterlimit="10"/>
<path d="M247.115 51.3651C254.263 51.1718 260.932 56.8889 261.585 64.1821C261.837 66.7562 261.381 69.3495 260.265 71.6944C256.77 79.1165 253.278 86.5389 249.787 93.9616C249.489 94.594 249.197 95.2302 248.781 95.8028C247.844 97.0917 246.519 97.1617 245.482 95.963C245.21 95.6481 244.982 95.2992 244.804 94.9255C241.066 86.9897 237.244 79.0907 233.633 71.0987C229.81 62.6382 235.471 52.8703 244.828 51.4958C245.594 51.3817 246.35 51.3734 247.115 51.3651ZM247.002 73.8597C251.777 73.9076 255.542 70.2628 255.579 65.5566C255.614 61.0648 251.833 57.363 247.165 57.3206C242.433 57.2774 238.621 60.8779 238.571 65.4387C238.519 70.1514 242.182 73.8118 247.002 73.8597Z" fill="#57270E"/>
</svg>
