<svg width="143" height="98" viewBox="0 0 143 98" fill="none" xmlns="http://www.w3.org/2000/svg">
<path d="M1.62584 67.1518C-1.53876 63.1286 4.61126 54.6351 11.7764 44.6218C16.9114 37.4695 19.4789 33.8933 24.6537 30.6211C27.9576 28.5112 29.53 28.2609 45.6516 23.3258C57.4939 19.7496 63.4649 17.8542 65.3158 16.6205C73.914 10.9343 73.0581 5.46272 81.5767 2.01172C85.7364 0.330918 89.2991 0.223633 95.1108 0.223633C102.743 0.22906 110.316 1.43953 117.482 3.7998C126.916 6.85743 133.225 8.87798 137.803 14.7608C140.8 18.7155 142.446 23.3703 142.54 28.1536C142.719 34.0007 140.39 38.149 135.773 46.4099C132.618 51.9346 128.992 57.2312 124.926 62.2523C121.181 67.4924 116.868 72.386 112.048 76.8611C105.958 82.2253 105.042 81.2955 97.1609 87.8042C88.8812 94.6346 86.851 98.2108 84.2835 97.5492C81.1786 96.7446 82.7311 91.1658 78.1733 82.3326C76.0158 77.5548 72.519 73.3599 68.0226 70.1558C61.8726 66.1147 55.3046 65.6497 49.055 65.2921C40.6558 64.8093 38.5063 66.2755 23.977 67.7239C10.4429 69.1007 3.63605 69.7087 1.62584 67.1518Z" fill="#FFD4BE"/>
<path d="M91.2201 17.5448C98.3684 17.3515 105.037 23.0686 105.69 30.3618C105.942 32.9359 105.487 35.5292 104.371 37.8741C100.876 45.2962 97.3828 52.7185 93.8922 60.1412C93.5943 60.7737 93.3022 61.4099 92.8865 61.9825C91.9496 63.2714 90.6244 63.3413 89.5876 62.1427C89.3152 61.8278 89.087 61.4789 88.9089 61.1051C85.1707 53.1693 81.3496 45.2704 77.7387 37.2784C73.9157 28.8179 79.5767 19.05 88.9334 17.6755C89.6988 17.5614 90.4556 17.5531 91.2201 17.5448ZM91.1069 40.0394C95.8819 40.0873 99.6474 36.4425 99.6842 31.7363C99.7191 27.2445 95.9385 23.5427 91.27 23.5003C86.5384 23.4571 82.7258 27.0576 82.6758 31.6184C82.624 36.3311 86.2877 39.9915 91.1069 40.0394Z" fill="#57270E"/>
</svg>
