<svg width="943" height="478" viewBox="0 0 943 478" fill="none" xmlns="http://www.w3.org/2000/svg">
<path d="M842.891 131.863C845.811 131.533 850.625 130.302 853.486 130.528C867.6 131.724 873.091 121.059 871.95 111.85C871.157 103.941 867.871 96.3984 862.477 90.1023C851.785 77.6331 842.543 64.0887 832.78 51.0472C832.431 50.5963 832.78 49.7639 832.78 49.1049C839.044 39.2717 848.885 37.1386 859.983 44.353C867.871 49.5558 874.406 56.2846 882.043 61.6955C887.831 65.7981 894.055 69.382 900.623 72.3957C903.639 73.8005 907.718 73.3149 912.726 73.8178C910.038 67.0196 908.279 62.5452 905.669 55.9204C912.977 54.8452 919.416 54.1862 925.641 52.8855C933.007 51.2726 938.498 47.5093 940.238 40.0347C935.25 27.8951 923.669 25.814 911.45 24.548C874.908 20.7847 837.845 20.4899 802.174 10.8995C790.071 7.65647 777.929 5.19386 764.994 8.74905C748.193 13.3621 731.005 10.6914 714.88 6.59856C685.744 -0.806656 658.811 4.03189 631.744 13.709C604.44 23.8175 575.795 30.7191 546.519 34.2424C529.486 36.1501 512.298 36.9305 495.187 38.2832C464.485 40.7285 439.292 51.0819 425.198 77.4597C424.927 77.98 413.114 83.6163 412.379 83.9284" stroke="black" stroke-width="5" stroke-linecap="round" stroke-linejoin="round"/>
<path d="M402.249 131.429C387.303 114.573 392.582 109.838 404.511 92.2703C406.84 89.3277 409.426 86.5557 412.244 83.9806C411.142 76.3499 405.767 73.2456 398.904 71.6848C386.917 68.9621 374.814 66.6208 362.865 63.742C355.77 62.0078 348.307 60.3776 345.464 52.1399C346.103 45.0122 351.265 41.0754 359.501 38.1272C374.098 32.9245 389.082 32.04 404.375 32.5603C405.922 32.5603 407.411 34.2946 409.344 35.4045C404.859 48.0645 392.253 49.0009 381.407 49.7987C353.569 51.9759 325.547 48.3554 299.527 39.2198C276.152 30.9995 252.197 24.4614 227.333 21.9814C222.963 21.604 218.564 21.5692 214.186 21.8774C211.943 21.9814 210.319 22.1029 209.759 22.1376C205.485 22.4039 201.243 22.9839 197.075 23.8718C195.022 24.2925 193 24.8312 191.024 25.4846C186.244 26.9094 181.883 29.2802 178.263 32.4216C176.6 33.9421 175.146 35.6365 173.933 37.4682C181.183 47.3708 192.145 46.9198 202.218 45.8446C212.581 44.7347 222.712 41.7171 232.824 39.2025C250.38 34.8149 263.082 38.6302 271.086 50.9953C277.621 61.0713 277.022 68.9621 268.882 77.4425C257.282 89.4955 241.814 96.762 226.135 102.606C205.93 110.133 186.287 116.966 175.866 136.164C172.831 141.696 165.561 142.494 158.62 142.234C150.732 141.939 140.794 140.5 137.352 148.2C134.046 155.345 140.175 162.074 145.627 167.606C147.622 169.73 149.821 171.691 152.201 173.467C172.869 188.261 175.518 207.094 171.284 229.449C167.804 247.71 162.351 266.007 165.967 285.291C168.654 299.616 176.04 311.305 185.108 322.37C202.508 343.51 208.193 367.789 212.543 393.005C216.294 414.753 221.9 436.361 227.875 457.658C229.808 464.803 234.661 471.844 244.637 475C250.438 466.901 252.371 458.143 253.956 448.987C259.138 420.094 276.906 397.428 299.643 377.38C304.225 373.339 308.536 369.021 312.751 364.65C321.51 355.546 330.036 346.58 333.922 334.388C336.184 327.312 341.656 320.791 346.779 314.774C361.86 296.998 355.596 275.753 331.312 269.909C300.01 262.399 272.575 249.948 250.476 228.495C249.103 227.142 246.609 226.761 245.121 225.46C230.717 213.962 213.374 210.129 194.852 210.927C163.086 212.28 132.693 207.632 105.393 192.943C82.0764 180.404 58.8948 167.086 50.5038 141.245C46.0152 127.572 44.8937 113.187 47.217 99.0859C48.9378 88.2989 51.7412 77.5812 52.4372 66.7422C53.3266 52.6602 48.3191 41.1795 30.8411 38.1619C21.6187 36.5664 12.783 33.2193 3.77337 30.67L3 26.5599C9.36091 22.6405 15.1998 17.403 22.2181 15.1485C30.9863 12.5243 40.1588 11.1492 49.4018 11.0731C71.9646 10.5181 94.5662 11.073 117.071 10.8129C134.472 10.5528 152.027 9.52957 169.524 8.97461C171.733 9.08133 173.923 9.39522 176.059 9.91111C185.572 11.8188 198.719 19.6056 203.417 22.7792" stroke="black" stroke-width="5" stroke-linecap="round" stroke-linejoin="round"/>
<path d="M517.035 117.711C504.023 108.069 476.704 96.3797 459.129 97.0734C454.102 97.2815 449.172 97.4549 448.283 103.022C447.394 108.589 451.531 110.34 456.945 110.895C468.545 112.075 480.61 115.716 491.746 114.277C510.964 111.797 520.747 121.006 528.867 133.458C534.272 141.634 539.015 150.148 543.059 158.934C548.604 171.632 556.763 183.28 567.11 193.272C574.495 200.443 581.439 207.97 587.914 215.817C594.159 223.188 595.048 233.992 587.759 240.096C568.986 255.705 561.909 276.151 554.891 297.066C552.373 303.622 548.318 309.618 543.001 314.651C528.804 328.583 521.042 346.834 521.288 365.708C521.288 369.956 520.148 374.223 520.341 378.437C520.728 386.31 517.615 392.103 509.301 395.068C505.728 396.358 501.781 396.56 498.068 395.642C494.355 394.724 491.081 392.737 488.749 389.987C475.041 375.367 466.225 358.528 464.543 339.174C463.306 324.814 462.126 310.437 461.295 296.043C460.425 280.851 452.246 270.394 437.263 263.613C432.893 261.636 429.2 258.41 425.179 255.861" stroke="black" stroke-width="5" stroke-linecap="round" stroke-linejoin="round"/>
<path d="M809.792 275.528C782.82 265.122 775.802 243.739 771.452 220.656C770.2 214.329 768.37 208.106 765.98 202.048C761.901 191.434 757.473 188.174 742.683 183.249C727.216 189.648 709.544 193.845 703.493 211.742C702.313 215.211 697.693 218.367 693.826 220.5C686.672 224.454 677.972 218.298 675.362 207.892C673.892 202.013 673.641 195.596 670.702 190.376C666.004 182.017 656.53 177.699 646.883 175.809C641.303 174.782 636.013 172.756 631.328 169.85C626.644 166.944 622.662 163.22 619.622 158.9C615.755 153.697 610.438 147.645 603.555 152.396C597.155 156.819 601.931 163.773 605.624 168.577C609.084 173.069 614.788 176.138 618.365 180.561C621.942 184.983 624.165 190.324 626.833 195.076C610.148 205.239 593.192 202.932 581.707 188.139C573.877 178.046 568.58 166.288 562.915 154.963C555.761 140.604 548.878 126.157 531.072 119.862C526.721 118.319 521.656 118.423 516.919 117.764" stroke="black" stroke-width="5" stroke-linecap="round" stroke-linejoin="round"/>
<path d="M844.109 132.99C834.23 123.677 823.113 118.266 813.368 124.873C819.845 126.972 825.085 129.799 830.556 130.25C845.25 131.411 851.824 135.903 856.251 151.06C850.064 153.263 843.742 156.991 837.072 157.633C812.576 159.992 817.931 164.657 817.486 181.41C817.196 192.197 817.486 202.984 817.486 213.753C817.486 223.24 815.553 233.125 817.873 242.108C824.118 266.041 818.182 277.903 791.192 291.048C781.525 295.783 770.698 298.696 760.76 303.084C755.927 305.217 750.359 308.009 747.864 311.911C740.847 322.958 734.602 334.385 729.168 346.128C725.166 354.678 731.527 362.413 742.084 361.528C754.187 360.505 766.096 357.609 778.161 355.926C795.716 353.464 805.016 359.69 808.844 375.454C810.394 380.472 812.267 385.405 814.451 390.23C851.94 376.026 873.768 351.365 884.885 319.507C894.069 293.199 864.024 268.278 832.683 274.417C827.134 275.51 821.083 274.573 815.282 274.573" stroke="black" stroke-width="5" stroke-linecap="round" stroke-linejoin="round"/>
<path d="M401.147 134.378C383.47 147.346 371.232 165.319 366.442 185.347C361.647 204.424 361.918 223.501 375.993 240.201C386.743 252.983 407.179 259.001 422.994 253.902" stroke="black" stroke-width="5" stroke-linecap="round" stroke-linejoin="round"/>
</svg>
