<svg width="67" height="78" viewBox="0 0 67 78" fill="none" xmlns="http://www.w3.org/2000/svg">
<g clip-path="url(#clip0_1052_200)">
<path d="M31.9633 23.9749C31.8878 18.6572 31.2435 13.5454 27.6847 9.26465C26.9631 8.41997 26.1512 7.65638 25.2635 6.98744C25.0323 6.80942 24.819 6.60928 24.6268 6.38989C24.3298 6.04592 24.3474 5.6643 24.7073 5.40067C26.0387 4.43405 27.5614 4.14533 29.1747 4.26082C29.293 4.26679 29.4058 4.31243 29.4949 4.39035C29.584 4.46827 29.6441 4.57391 29.6654 4.69015C30.0631 6.75143 31.1176 8.5516 31.9482 10.4447C33.788 14.6275 34.5506 19.0263 34.533 23.5757C34.533 24.3489 34.5481 24.3715 35.2427 24.0326C36.7679 23.2794 38.2629 22.5086 39.7981 21.773C42.544 20.4398 45.4232 19.5761 48.4937 19.5359C58.9007 19.3953 64.3924 26.237 66.2045 33.2469C67.1407 36.8623 67.1131 40.5279 66.7733 44.2212C65.7666 55.1578 60.6851 64.1536 53.3738 72.0749C52.6515 72.8607 51.8864 73.6064 51.1313 74.3621C48.2974 77.1992 44.8871 77.8997 41.0641 77.0762C39.4231 76.7247 37.8904 76.0067 36.2293 75.7229C34.0698 75.3377 31.8443 75.5998 29.8341 76.4762C28.2107 77.1741 26.5622 77.7516 24.7853 77.9374C22.1516 78.2441 19.5008 77.5245 17.3859 75.9288C13.359 72.9888 10.2533 69.2403 7.57037 65.1027C3.46935 58.8487 0.94063 51.7003 0.198633 44.2638C-0.347515 38.9236 0.198632 33.7063 2.80101 28.9109C5.84132 23.3371 10.4848 19.9301 16.8951 19.2095C20.2164 18.8416 23.5684 19.5455 26.459 21.2181C27.8013 21.9613 29.1394 22.7003 30.4733 23.4351C30.9337 23.7022 31.4383 23.885 31.9633 23.9749Z" fill="#B47C5F"/>
<path d="M36.2266 17.0349C34.5781 17.0675 34.568 17.0675 34.7316 15.4356C35.2853 9.93965 38.6201 3.85622 47.0011 2.57827C49.388 2.22212 51.6953 1.45769 53.8216 0.318642C54.106 0.162978 54.5087 -0.120734 54.7151 0.0801221C54.9215 0.280978 54.559 0.622437 54.4181 0.88355C53.2553 3.03522 52.377 5.33252 51.0808 7.41138C48.564 11.4285 45.2921 14.5945 40.7191 16.2239C39.2768 16.74 37.7587 17.014 36.2266 17.0349Z" fill="#B47C5F"/>
</g>
<defs>
<clipPath id="clip0_1052_200">
<rect width="67" height="78" fill="white"/>
</clipPath>
</defs>
</svg>
