<svg width="86" height="47" viewBox="0 0 86 47" fill="none" xmlns="http://www.w3.org/2000/svg">
<g clip-path="url(#clip0_1052_207)">
<path d="M86.0004 22.6512C85.2026 20.8377 83.7782 19.5109 82.4731 18.1278C75.8568 11.1539 68.1067 5.91332 59.0717 2.75938C52.9725 0.591064 46.5077 -0.312407 40.0593 0.102352C32.148 0.626585 24.7439 2.95404 17.8286 6.8986C11.5296 10.4674 5.90561 15.1475 1.21988 20.7199C0.727944 21.3043 0.316561 21.954 -0.00292969 22.6512V24.3588C0.726055 26.0442 2.03453 27.2822 3.24727 28.5681C11.1989 36.9985 20.6102 42.9119 31.8574 45.668C36.5189 46.8055 41.3228 47.2195 46.1062 46.8957C52.5724 46.4559 58.896 44.7616 64.7356 41.9044C72.4828 38.1777 79.3555 32.8083 84.8918 26.1569C85.3394 25.6094 85.7149 25.0049 86.0088 24.3588L86.0004 22.6512ZM45.2663 40.4393C45.9398 38.1534 46.4616 35.8241 46.8284 33.4672C47.4382 29.5738 48.2998 25.7061 47.9421 21.7154C47.5324 16.9304 46.7255 12.1892 45.53 7.54236C45.2579 6.50414 45.2563 6.48365 46.301 6.70222C54.597 8.44227 60.3382 16.0667 59.7906 24.4613C59.3807 30.7538 56.3758 35.4053 51.0646 38.5473C49.2869 39.5917 47.3098 40.2368 45.2663 40.4393ZM40.7312 40.4205C40.3695 40.4014 40.0091 40.3638 39.6511 40.3078C31.4207 38.5609 25.6627 30.9604 26.2136 22.5129C26.5328 17.5523 28.587 13.5087 32.2874 10.3172C34.5006 8.41379 37.176 7.1494 40.0341 6.65611C40.4775 6.57586 40.795 6.52976 40.5934 7.20768C39.5503 10.6997 38.991 14.2959 38.4871 17.8973C38.1965 19.9754 37.8152 22.0638 37.9597 24.171C38.1918 27.3167 38.6017 30.4462 39.1875 33.544C39.5827 35.8605 40.098 38.1541 40.7312 40.4154V40.4205ZM23.3111 35.8851C22.9752 35.7144 22.8156 35.6563 22.6678 35.5795C17.1097 32.6765 12.2218 28.8788 7.88656 24.3298C7.11391 23.5187 7.11391 23.4931 7.88656 22.6871C11.4532 18.8995 15.5118 15.6248 19.9501 12.9537C20.9982 12.3271 22.0312 11.6628 23.2859 11.1778C18.7726 19.4358 18.7693 27.5759 23.3111 35.8851ZM62.7838 11.2871C63.0576 11.1761 63.2255 11.3776 63.4103 11.475C68.9365 14.3642 73.8009 18.1551 78.1193 22.6837C78.8903 23.4931 78.8886 23.517 78.1193 24.3264C74.5518 28.1129 70.4933 31.3875 66.0558 34.0597C65.0077 34.6847 63.9764 35.3506 62.7267 35.8339C67.2333 27.5776 67.2299 19.4358 62.7855 11.2871H62.7838Z" fill="#B47C5F"/>
</g>
<defs>
<clipPath id="clip0_1052_207">
<rect width="86" height="47" fill="white" transform="matrix(1 0 0 -1 0 47)"/>
</clipPath>
</defs>
</svg>
