<svg width="96" height="54" viewBox="0 0 96 54" fill="none" xmlns="http://www.w3.org/2000/svg">
<path d="M0.61772 21.7578C16.1887 28.3848 26.8141 21.6242 39.5268 10.102C56.5958 -4.1489 64.5452 4.69642 57.3914 27.2752C59.1138 34.9811 83.2621 6.99324 81.952 0.776139C83.5834 9.10156 89.0885 8.29598 95.5423 5.96746C96.3989 9.60646 93.696 10.3476 90.1582 12.9934C76.6812 23.5378 96.9829 24.225 89.5844 35.8075C88.5206 37.3145 87.0093 38.2987 86.7642 38.032C94.2489 14.3428 45.2514 44.9732 40.4914 49.7577C37.2684 52.1642 35.5512 53.7794 35.2984 53.4866C41.2524 43.0591 53.9285 31.3881 56.2304 17.0649C40.164 20.8816 19.0254 44.9019 0.61772 21.7578Z" fill="#B47C5F"/>
</svg>
