<svg width="1919" height="1386" viewBox="0 0 1919 1386" fill="none" xmlns="http://www.w3.org/2000/svg">
<path d="M958.725 0.133238H23.726C2.80493 0.133238 3.1479 0.133228 2.70205 27.0682C-2.64825 433.005 1.87892 838.986 0.301268 1244.92C0.551622 1259.19 1.38736 1273.44 2.80493 1287.59C3.28509 1293.41 4.75985 1298.39 9.66429 1298.61C34.1522 1299.59 55.0046 1315.82 77.0918 1326.13C138.071 1354.71 200.149 1376.97 264.97 1384.31C312.985 1389.78 359.251 1379.24 404.214 1356.88C447.634 1335.33 490.128 1310.17 536.223 1298.57C609.549 1280.04 680.681 1289.68 750.303 1324.3C794.478 1346.26 838.48 1369.33 885.638 1379.15C959.685 1394.53 1031.16 1381.69 1100.82 1347.06C1144.27 1325.46 1187.55 1303.19 1234.16 1294.84C1308.76 1281.5 1380.61 1291.77 1449.48 1332.66C1501.51 1363.77 1555.32 1386.26 1613.28 1386C1667.57 1386 1720.39 1372.22 1772.48 1353.6C1816.21 1337.95 1858.67 1317.64 1901.06 1296.79C1916.02 1289.41 1917.42 1280.35 1917.35 1263.72C1917.05 1148.16 1915.57 1032.86 1917.63 917.524C1921.3 713.067 1919.86 508.965 1918.9 304.73C1918.49 210.546 1918.11 116.363 1917.25 22.2236C1917.08 0.355615 1916.87 3.77491e-05 1898.7 3.77491e-05L958.725 0.133238Z" fill="#FFE4D5"/>
</svg>
