<svg width="1920" height="2226" viewBox="0 0 1920 2226" fill="none" xmlns="http://www.w3.org/2000/svg">
<path d="M958.725 1386.08H23.726C2.80493 1386.08 3.1479 1386.08 2.70205 1402.4C-2.64825 1648.43 1.87892 1894.48 0.301268 2140.5C0.551622 2149.15 1.38736 2157.78 2.80493 2166.36C3.28509 2169.89 4.75985 2172.9 9.66429 2173.04C34.1522 2173.63 55.0046 2183.46 77.0918 2189.71C138.071 2207.03 200.149 2220.53 264.97 2224.97C312.985 2228.29 359.251 2221.9 404.214 2208.35C447.634 2195.29 490.128 2180.04 536.223 2173.01C609.549 2161.78 680.681 2167.62 750.303 2188.61C794.478 2201.92 838.48 2215.9 885.638 2221.85C959.685 2231.17 1031.16 2223.39 1100.82 2202.4C1144.27 2189.31 1187.55 2175.81 1234.16 2170.75C1308.76 2162.67 1380.61 2168.89 1449.48 2193.67C1501.51 2212.53 1555.32 2226.16 1613.28 2226C1667.57 2226 1720.39 2217.65 1772.48 2206.36C1816.21 2196.88 1858.67 2184.57 1901.06 2171.93C1916.02 2167.46 1917.42 2161.97 1917.35 2151.89C1917.05 2081.85 1915.57 2011.98 1917.63 1942.08C1921.3 1818.16 1919.86 1694.46 1918.9 1570.68C1918.49 1513.6 1918.11 1456.52 1917.25 1399.47C1917.08 1386.22 1916.87 1386 1898.7 1386L958.725 1386.08Z" fill="#FFE4D5"/>
<rect width="1920" height="1386" fill="#FFE4D5"/>
</svg>
