<svg width="1920" height="1009" viewBox="0 0 1920 1009" fill="none" xmlns="http://www.w3.org/2000/svg">
<g clip-path="url(#clip0_1052_455)">
<rect width="1920" height="1009" fill="white"/>
<path d="M710.633 684.165C708.469 697.362 692.617 703.008 682.598 694.15L514.414 545.468C504.716 536.894 507.776 521.059 519.97 516.716L724.483 443.876C736.677 439.533 749.058 449.868 746.963 462.642L710.633 684.165Z" fill="#FFF4EE"/>
<path d="M1843.99 423.263C1854.18 413.473 1871.18 419.67 1872.67 433.722L1896.06 653.281C1897.39 665.79 1885.15 675.363 1873.33 671.053L1690.7 604.448C1678.88 600.138 1675.68 584.93 1684.75 576.216L1843.99 423.263Z" fill="#FFF4EE"/>
<path d="M233.015 514.95C245.104 520.668 246.162 537.462 234.886 544.652L71.6178 648.755C60.7035 655.714 46.3256 648.408 45.5118 635.489L33.7383 448.596C32.9245 435.677 46.2718 426.625 57.9733 432.159L233.015 514.95Z" fill="#FFF4EE"/>
<path d="M1360.27 486.151C1370.4 477 1386.65 482.923 1388.51 496.448L1428.65 788.015C1430.39 800.703 1418.01 810.693 1405.98 806.305L1147.42 712.008C1135.39 707.62 1132.35 692.006 1141.85 683.421L1360.27 486.151Z" fill="#FFF4EE"/>
<path d="M956.724 0.0475798H21.7255C0.804445 0.0475798 1.14741 0.047576 0.701557 9.66722C-4.64874 154.645 -0.121569 299.638 -1.69922 444.615C-1.44887 449.712 -0.613133 454.799 0.804443 459.854C1.2846 461.934 2.75936 463.711 7.6638 463.791C32.1517 464.14 53.0041 469.934 75.0913 473.617C136.071 483.824 198.148 491.777 262.969 494.396C310.985 496.348 357.251 492.586 402.214 484.602C445.634 476.903 488.127 467.918 534.222 463.775C607.549 457.156 678.68 460.6 748.303 472.966C792.477 480.808 836.48 489.046 883.638 492.555C957.685 498.047 1029.16 493.459 1098.82 481.094C1142.27 473.379 1185.55 465.426 1232.16 462.442C1306.76 457.679 1378.61 461.346 1447.48 475.95C1499.51 487.062 1553.32 495.094 1611.28 494.999C1665.57 494.999 1718.39 490.078 1770.48 483.427C1814.21 477.839 1856.67 470.585 1899.06 463.14C1914.02 460.505 1915.42 457.267 1915.35 451.33C1915.04 410.057 1913.57 368.88 1915.63 327.687C1919.3 254.667 1917.86 181.773 1916.9 108.832C1916.49 75.1952 1916.11 41.5582 1915.25 7.93701C1915.08 0.127 1914.87 8.17139e-06 1896.7 8.17139e-06L956.724 0.0475798Z" fill="#FFE4D5"/>
<path d="M958.724 1008.96H23.7255C2.80444 1008.96 3.14741 1008.96 2.70156 1000.11C-2.64874 866.852 1.87843 733.575 0.300779 600.313C0.551134 595.629 1.38687 590.953 2.80444 586.306C3.2846 584.394 4.75936 582.76 9.6638 582.687C34.1517 582.366 55.0041 577.04 77.0913 573.655C138.071 564.273 200.148 556.963 264.969 554.555C312.985 552.761 359.251 556.219 404.214 563.558C447.634 570.635 490.127 578.893 536.222 582.702C609.549 588.786 680.68 585.62 750.303 574.253C794.477 567.045 838.48 559.473 885.638 556.248C959.685 551.199 1031.16 555.416 1100.82 566.783C1144.27 573.874 1187.55 581.184 1234.16 583.927C1308.76 588.305 1380.61 584.934 1449.48 571.51C1501.51 561.296 1555.32 553.913 1613.28 554.001C1667.57 554.001 1720.39 558.524 1772.48 564.638C1816.21 569.774 1858.67 576.442 1901.06 583.285C1916.02 585.708 1917.42 588.684 1917.35 594.141C1917.04 632.079 1915.57 669.928 1917.63 707.793C1921.3 774.912 1919.86 841.916 1918.9 908.962C1918.49 939.881 1918.11 970.8 1917.25 1001.7C1917.08 1008.88 1916.87 1009 1898.7 1009L958.724 1008.96Z" fill="#FFE4D5"/>
</g>
<defs>
<clipPath id="clip0_1052_455">
<rect width="1920" height="1009" fill="white"/>
</clipPath>
</defs>
</svg>
