<svg width="1920" height="1070" viewBox="0 0 1920 1070" fill="none" xmlns="http://www.w3.org/2000/svg">
<path d="M958.725 0.102858H23.726C2.80493 0.102858 3.1479 0.102849 2.70205 20.8968C-2.64825 334.282 1.87892 647.702 0.301268 961.087C0.551622 972.104 1.38736 983.1 2.80493 994.028C3.28509 998.523 4.75985 1002.37 9.66429 1002.54C34.1522 1003.29 55.0046 1015.82 77.0918 1023.78C138.071 1045.84 200.149 1063.03 264.97 1068.69C312.985 1072.91 359.251 1064.78 404.214 1047.52C447.634 1030.88 490.128 1011.46 536.223 1002.5C609.549 988.195 680.681 995.641 750.303 1022.37C794.478 1039.32 838.48 1057.13 885.638 1064.71C959.685 1076.59 1031.16 1066.67 1100.82 1039.94C1144.27 1023.26 1187.55 1006.07 1234.16 999.621C1308.76 989.327 1380.61 997.254 1449.48 1028.82C1501.51 1052.84 1555.32 1070.2 1613.28 1070C1667.57 1070 1720.39 1059.36 1772.48 1044.98C1816.21 1032.91 1858.67 1017.22 1901.06 1001.13C1916.02 995.435 1917.42 988.435 1917.35 975.602C1917.05 886.387 1915.57 797.377 1917.63 708.334C1921.3 550.492 1919.86 392.924 1918.9 235.253C1918.49 162.543 1918.11 89.8328 1917.25 17.1568C1917.08 0.274534 1916.87 2.59241e-05 1898.7 2.59241e-05L958.725 0.102858Z" fill="#FFE4D5"/>
</svg>
