<svg width="72" height="60" viewBox="0 0 72 60" fill="none" xmlns="http://www.w3.org/2000/svg">
<g clip-path="url(#clip0_1027_295)">
<path d="M4.12163 0L12.1019 5.85939C14.0554 7.30044 16.009 8.77258 17.9977 10.1728C18.572 10.5788 18.7557 11.0157 18.7322 11.7032C18.5369 17.2325 18.3903 22.7733 18.1637 28.2948C18.1247 29.2659 18.404 29.3941 19.2831 29.3164C25.3391 28.7823 31.4068 28.3006 37.4687 27.7996C38.0216 27.7549 38.5686 27.6792 39.1214 27.6384C40.6178 27.5296 40.6335 27.5335 40.6667 26.0847C40.7682 21.7498 40.862 17.4131 40.9499 13.0724C40.9499 12.7267 40.9812 12.381 41.0046 11.8372L68.6552 35.8613C68.4598 36.1701 68.2098 36.0555 68.0027 36.0555C61.6536 35.9481 55.3059 35.8374 48.9595 35.7234C47.8596 35.704 47.8577 35.706 48.3246 36.7586C51.6118 44.1749 54.9002 51.5912 58.19 59.0076C58.3189 59.2969 58.4283 59.5902 58.5963 60.0039C56.0899 59.8912 53.6988 59.7825 51.3057 59.6796C50.7958 59.6562 50.7196 59.2096 50.534 58.9027C47.7737 54.3678 45.0055 49.8369 42.292 45.2748C41.8779 44.5776 41.4422 44.3173 40.6295 44.2785C35.299 44.0196 29.9697 43.7205 24.6417 43.3812C23.9013 43.3346 23.5809 43.5191 23.3192 44.2338C21.4848 49.2387 19.582 54.2183 17.7359 59.2193C17.5034 59.8524 17.2026 60.0427 16.5345 59.9961C15.0088 59.8932 13.4772 59.8407 11.9495 59.8563C11.1173 59.8563 10.8985 59.7009 11.1564 58.8367C13.1373 52.216 15.0361 45.57 17.0502 38.961C17.396 37.8268 17.2299 37.0888 16.4935 36.1895C11.1056 29.6193 5.78214 22.9967 0.413791 16.4129C-0.0355255 15.8633 -0.0824112 15.3991 0.0973153 14.7446C1.37298 10.1049 2.60763 5.45349 3.85985 0.807925C3.92432 0.563217 4.01418 0.324335 4.12163 0ZM47.2286 23.4997V29.7436C47.2286 30.2777 47.6389 30.1321 47.93 30.1321C49.9402 30.1418 51.9523 30.1321 53.9645 30.1321H55.8145L47.2286 23.4997Z" fill="#57270E"/>
<path d="M71.9531 59.7982H65.9733C65.6392 59.7982 65.354 59.7846 65.1919 59.3942C63.0195 54.3563 60.8335 49.3224 58.5986 44.168C60.8745 44.168 63.0332 44.168 65.1919 44.168C65.5279 44.168 65.6353 44.3991 65.7349 44.6341C67.8318 49.6383 69.9247 54.6444 72.0137 59.6525C72.0078 59.67 71.9804 59.7088 71.9531 59.7982Z" fill="#57270E"/>
<path d="M31.5146 48.9219C33.7339 48.9219 35.7793 48.9219 37.8266 48.9219C37.9711 48.9106 38.1151 48.9484 38.2351 49.0292C38.3551 49.11 38.4439 49.229 38.4869 49.3666C39.9598 52.742 41.4406 56.1142 42.9292 59.4832C42.9531 59.6007 42.961 59.7209 42.9527 59.8405C40.8917 59.8405 38.8502 59.8405 36.8068 59.8405C36.679 59.8532 36.5507 59.8215 36.4438 59.7506C36.337 59.6798 36.2581 59.5743 36.2208 59.4521C34.6872 56.0106 33.1537 52.5673 31.5146 48.9219Z" fill="#57270E"/>
<path d="M57.9911 22.0685C56.7213 20.6682 55.6254 19.4544 54.5197 18.2483C53.0057 16.5956 52.9998 16.5975 54.4161 14.8651C55.0862 14.0455 55.766 13.2337 56.565 12.2588C57.0515 15.5701 57.5008 18.6814 57.9911 22.0685Z" fill="#57270E"/>
</g>
<defs>
<clipPath id="clip0_1027_295">
<rect width="72" height="60" fill="white"/>
</clipPath>
</defs>
</svg>
