<svg width="1919" height="1000" viewBox="0 0 1919 1000" fill="none" xmlns="http://www.w3.org/2000/svg">
<path d="M1918.25 68.0078C1918.83 110.889 1919.85 153.739 1919.88 196.589C1920.04 455.631 1920.04 714.683 1919.88 973.745C1919.88 982.455 1918.9 991.196 1918.39 999.905C1908.21 999.652 1897.77 999.176 1887.46 999.176H29.9817C20.621 999.176 11.2601 999.715 1.8993 1000C1.22098 957.15 0 914.49 0 871.482C0 613.201 0.16958 354.909 0.508738 96.6061C0.508738 85.2998 1.59405 73.9619 2.17062 62.624C19.9086 65.981 35.0014 58.2533 50.7383 52.7744C129.694 25.2846 209.669 1.12027 295.069 0.645217C353.302 0.296844 406.008 21.5476 458.747 41.3415C548.794 75.102 639.045 80.581 732.28 50.8426C789.428 32.6005 844.678 8.15106 906.37 2.64044C959.329 -2.51388 1012.86 2.21209 1063.84 16.5437C1112.78 30.5419 1159.38 52.1726 1209.68 61.8637C1293.15 77.9522 1374.38 71.3649 1453.37 37.7628C1511.36 13.0283 1572.85 -3.88358 1637.8 0.771943C1725.98 7.10599 1809.82 31.0804 1891.9 60.9454C1900.45 63.8591 1908.08 69.908 1918.25 68.0078Z" fill="#FFE4D5"/>
</svg>
